<svg width="167" height="93" viewBox="0 0 167 93" fill="none" xmlns="http://www.w3.org/2000/svg">
<path d="M36.966 93C19.3648 93 6.75273 84.5988 0.81108 79.6025C0.578365 79.4069 0.387011 79.1651 0.248594 78.8918C0.110178 78.6185 0.0275806 78.3194 0.00581277 78.0126C-0.015955 77.7058 0.0235568 77.3977 0.121953 77.1069C0.220349 76.8162 0.375584 76.5488 0.578255 76.321L4.94454 71.408C5.3262 70.9758 5.85631 70.71 6.42493 70.6658C6.99355 70.6216 7.55704 70.8023 7.99852 71.1705C12.9363 75.2816 23.2714 82.0513 37.6161 81.8231C51.2985 81.6257 61.171 75.1305 65.9274 71.1736C66.3695 70.8046 66.9337 70.6232 67.5033 70.6668C68.0729 70.7104 68.6043 70.9758 68.9874 71.408L73.3567 76.3148C73.5594 76.5426 73.7146 76.81 73.813 77.1008C73.9114 77.3915 73.9509 77.6996 73.9291 78.0064C73.9074 78.3132 73.8248 78.6123 73.6864 78.8856C73.548 79.1589 73.3566 79.4007 73.1239 79.5964C67.3122 84.4786 54.9814 92.7379 37.7703 92.9877C37.5042 93 37.2321 93 36.966 93Z" fill="white"/>
<path d="M122.019 2.26652V7.27528C122.016 7.87347 121.776 8.44624 121.35 8.8678C120.924 9.28936 120.347 9.52524 119.747 9.52363H101.399C99.1314 9.52243 96.8855 9.96646 94.7899 10.8304C92.6943 11.6943 90.7901 12.9611 89.1859 14.5585C87.5817 16.156 86.3091 18.0527 85.4407 20.1403C84.5722 22.2279 84.125 24.4656 84.1246 26.7255V35.8492H73.9351V22.2137C73.9347 19.2967 74.5109 16.4082 75.6308 13.7131C76.7508 11.018 78.3925 8.5692 80.4622 6.50643C82.532 4.44366 84.9892 2.80736 87.6936 1.69098C90.398 0.574601 93.2966 2.01479e-06 96.2238 2.04194e-06H119.747C120.046 -0.000397974 120.342 0.0579781 120.618 0.171777C120.894 0.285576 121.144 0.452557 121.355 0.663142C121.566 0.873727 121.734 1.12377 121.847 1.39892C121.961 1.67407 122.019 1.96891 122.019 2.26652Z" fill="white"/>
<path d="M122.019 68.4041V63.414C122.016 62.818 121.776 62.2474 121.35 61.8274C120.924 61.4074 120.347 61.1724 119.747 61.174H101.399C99.1303 61.1752 96.8835 60.7324 94.7871 59.8709C92.6907 59.0095 90.7859 57.7463 89.1816 56.1535C87.5773 54.5607 86.3049 52.6697 85.4372 50.5884C84.5695 48.5071 84.1235 46.2764 84.1247 44.0239V25.4581H73.9351V48.5281C73.9347 51.4342 74.5109 54.312 75.6308 56.997C76.7508 59.6821 78.3925 62.1218 80.4622 64.1769C82.532 66.232 84.9892 67.8623 87.6936 68.9745C90.398 70.0867 93.2966 70.6592 96.2238 70.6592H119.747C120.046 70.6596 120.341 70.6015 120.617 70.4883C120.893 70.3751 121.143 70.209 121.354 69.9996C121.565 69.7901 121.733 69.5413 121.847 69.2675C121.961 68.9938 122.019 68.7004 122.019 68.4041Z" fill="white"/>
<path d="M140.631 4.54825V13.5084H128.74V4.54825C128.744 3.34318 129.255 2.18859 130.162 1.33647C131.068 0.484351 132.296 0.00390879 133.578 0H135.786C137.07 0.00234472 138.299 0.482102 139.207 1.33439C140.115 2.18667 140.627 3.34216 140.631 4.54825V4.54825Z" fill="white"/>
<path d="M140.631 25.4581V65.4436C140.612 66.8394 140.013 68.1712 138.964 69.1484C137.916 70.1256 136.503 70.6686 135.034 70.659H134.346C132.877 70.671 131.462 70.1294 130.411 69.1527C129.361 68.1759 128.76 66.8434 128.74 65.4466V25.4581H140.631Z" fill="white"/>
<path d="M41.0243 70.6592H27.2361C24.678 70.6604 22.1448 70.155 19.7811 69.172C17.4175 68.1889 15.2697 66.7474 13.4606 64.9299C11.6515 63.1123 10.2165 60.9544 9.23757 58.5793C8.25863 56.2042 7.75497 53.6585 7.75537 51.0877V45.5335C7.75537 40.4706 9.75665 35.6151 13.319 32.035C16.8813 28.455 21.7128 26.4438 26.7507 26.4438H42.4625C43.2773 26.4438 44.0588 26.7691 44.635 27.3482C45.2112 27.9272 45.5349 28.7126 45.5349 29.5315V33.9312C45.5365 34.7485 45.2156 35.5332 44.6425 36.1131C44.0694 36.693 43.2909 37.0209 42.4776 37.025H26.7657C24.5184 37.025 22.3631 37.9219 20.7737 39.5186C19.1843 41.1154 18.291 43.2811 18.2902 45.5396V51.0938C18.2902 53.4782 19.2327 55.7649 20.9104 57.4509C22.5881 59.1369 24.8635 60.0841 27.2361 60.0841H41.0243C44.9042 60.0841 48.6253 58.5351 51.3688 55.778C54.1124 53.0208 55.6537 49.2812 55.6537 45.382V25.2802C55.6537 21.381 54.1124 17.6415 51.3688 14.8843C48.6253 12.1271 44.9042 10.5781 41.0243 10.5781H20.1475C19.3327 10.5781 18.5512 10.2528 17.975 9.67376C17.3988 9.09471 17.0751 8.30934 17.0751 7.49044V3.08769C17.0759 2.26903 17.3999 1.48413 17.9759 0.905252C18.5519 0.326372 19.3329 0.000802214 20.1475 0H41.0243C47.6958 0 54.0942 2.66345 58.8117 7.40441C63.5292 12.1454 66.1795 18.5755 66.1795 25.2802V45.3759C66.1799 48.696 65.5295 51.9837 64.2655 55.0512C63.0015 58.1187 61.1487 60.9059 58.8128 63.2537C56.4768 65.6015 53.7036 67.4639 50.6514 68.7346C47.5993 70.0052 44.328 70.6592 41.0243 70.6592V70.6592Z" fill="white"/>
<path d="M162.084 19.1885L160.611 14.1153C160.581 14.0142 160.586 13.9062 160.626 13.8083C160.665 13.7104 160.737 13.6282 160.829 13.5746C160.921 13.521 161.029 13.499 161.135 13.5121C161.242 13.5252 161.341 13.5727 161.417 13.647L166.86 18.9947C166.95 19.0836 167 19.2038 167 19.329C167 19.4542 166.95 19.5743 166.86 19.6632L161.104 25.3145C161.028 25.3916 160.928 25.4409 160.819 25.4544C160.711 25.4679 160.601 25.4447 160.508 25.3886C160.415 25.3325 160.344 25.2469 160.307 25.146C160.27 25.045 160.269 24.9347 160.305 24.8333L162.081 19.4662C162.11 19.376 162.111 19.2793 162.084 19.1885V19.1885Z" fill="white"/>
<path d="M160.278 19.1441V19.4671L158.612 24.8929C158.56 25.0586 158.46 25.2028 158.325 25.3044C158.189 25.406 158.027 25.4599 157.861 25.4581H128.74V13.5084H158.156C158.324 13.5095 158.486 13.566 158.621 13.6698C158.756 13.7736 158.857 13.9195 158.908 14.0865V14.0865L159.299 15.5366L160.278 19.1441Z" fill="white"/>
</svg>
